<?xml version="1.0" encoding="UTF-8"?><svg id="a" xmlns="http://www.w3.org/2000/svg" viewBox="0 0 148.36421 120"><path d="M22.27904,60.37804c-.14921,28.87195,23.13535,52.39839,52.00609,52.54881,28.87195.15042,52.39839-23.13172,52.54643-52.00367.14921-28.87195-23.13414-52.39846-52.00609-52.54889-28.87195-.1516-52.39721,23.13179-52.54643,52.00374M17.76629,60.35395c.16247-31.36417,25.71784-56.65604,57.08202-56.4924,31.36421.16247,56.65843,25.7203,56.496,57.08448-.16126,31.36417-25.71784,56.65722-57.08205,56.49357-31.36417-.16365-56.65722-25.72148-56.49596-57.08565" fill="#000" stroke-width="0"/><path d="M90.57179,2.25337c9.05557,9.10012,18.71045,18.82478,32.40514,33.18734,13.70431,14.37336,8.73548,41.07561-12.33848,48.46568-22.17382,7.77516-103.94476,36.10557-103.95802,36.0936,0,.02527,18.07265-29.13432,18.07265-29.13432,0,0,51.40561-11.93167,79.33528-18.42528,4.36713-1.01566,6.82446-3.31052,8.03991-5.09638-2.06621,1.32981-4.66075,2.26482-7.7908,2.92065-13.47805,2.82076-76.6818,15.79344-76.6818,15.79344,0,0,11.56828-18.65753,14.42878-23.12937,0,0,39.0888-1.16124,59.75837-1.77498,7.56216-.22505,11.99308-9.48764,5.74141-15.86321,0,0-21.15093-22.0487-26.87912-27.75758-4.43812-4.42615-9.85103-1.01331-10.75597.41874,2.7678-4.53919,5.71853-9.32752,9.1783-14.94979,2.38755-3.87976,8.35038-3.85691,11.44434-.74853" fill="#0d7b64" fill-rule="evenodd" stroke-width="0"/><path d="M59.00978,42.42225c-.0325,6.15413,4.93031,11.16868,11.08451,11.20122,6.15416.03129,11.16875-4.93156,11.20122-11.08575.0325-6.15295-4.93031-11.16868-11.08451-11.20122-6.15416-.03129-11.16875,4.93156-11.20122,11.08575M53.2503,42.39213c.04932-9.33479,7.65602-16.86323,16.99078-16.81387,9.33479.04811,16.86323,7.65478,16.81391,16.98956-.04815,9.33596-7.65602,16.86323-16.99081,16.81387-9.33475-.04811-16.86202-7.65478-16.81387-16.98956" fill="#0d7b64" stroke-width="0"/><path d="M129.90767,53.67473c-1.56804,0-2.84,1.27083-2.84,2.84,0,1.56808,1.27196,2.83883,2.84,2.83883h2.84v13.49013c0,1.9603,1.5885,3.54637,3.54883,3.54637s3.55004-1.5885,3.55004-3.54879v-13.48771h2.83883c1.568,0,2.84-1.27075,2.84-2.83883,0-1.56918-1.272-2.84-2.84-2.84h-12.7777Z" fill="#fff" stroke-width="0"/><path d="M108.83688,68.42592s-2.55241-9.55382-2.58609-9.6717c-.86766-2.92785-3.5741-5.06634-6.77995-5.07956-3.23476.01205-5.93998,2.15046-6.80764,5.07956-.03489.11789-2.5873,9.6717-2.5873,9.6717-.17569.58363-.71962,1.00846-1.35985,1.00846-.6414,0-1.18294-.42483-1.36466-1.00846l-3.45015-12.86676c-.39229-1.09866-1.44167-1.8845-2.67393-1.8845-1.56925,0-2.84004,1.27075-2.84004,2.84,0,.213.02409.42241.0686.62219.01564.0686,3.67156,13.70431,3.67156,13.70431l.15645.58246c.90497,2.87849,3.59455,4.96762,6.77272,4.96762,3.13608,0,5.79558-2.03257,6.73544-4.85333l2.26478-7.27335c.19376-.72443.69678-1.18416,1.39955-1.18416.7064,0,1.2359.49101,1.40197,1.189l2.2624,7.2685c.93986,2.82076,3.60058,4.85333,6.73541,4.85333,3.1782,0,5.86778-2.08913,6.77397-4.96762l.15524-.58246s3.65713-13.63571,3.67278-13.70431c.04451-.19978.06739-.40919.06739-.62219,0-1.56925-1.27079-2.84-2.83883-2.84-1.23348,0-2.28285.78584-2.67515,1.8845l-3.44894,12.86676c-.18293.58363-.72447,1.00846-1.36466,1.00846-.64144,0-1.18537-.42483-1.36106-1.00846" fill="#fff" stroke-width="0"/><path d="M43.77606,61.63947s2.5512,9.55499,2.58609,9.6717c.86766,2.9291,3.57292,5.06751,6.77995,5.07956,3.23476-.01205,5.93998-2.15046,6.80764-5.07956.03489-.11671,2.58609-9.6717,2.58609-9.6717.1769-.58363.71966-1.00846,1.36106-1.00846s1.18294.42483,1.36466,1.00846l3.45015,12.86676c.39229,1.09866,1.44167,1.8845,2.67393,1.8845,1.56925,0,2.84004-1.27075,2.84004-2.83883,0-.21418-.02409-.42241-.0686-.62337-.01564-.0686-3.67156-13.70431-3.67156-13.70431l-.15645-.58246c-.90497-2.87849-3.59576-4.96637-6.77272-4.96637-3.13608,0-5.79679,2.0325-6.73544,4.85208l-2.26478,7.27335c-.19376.72443-.69678,1.18416-1.40076,1.18416-.70519,0-1.23469-.49101-1.40076-1.189l-2.2624-7.2685c-.93986-2.81958-3.60058-4.85208-6.73662-4.85208-3.17699,0-5.86778,2.08788-6.77276,4.96637l-.15641.58246s-3.65596,13.63571-3.6716,13.70431c-.04451.20096-.06857.40919-.06857.62337,0,1.56808,1.27196,2.83883,2.84,2.83883,1.2323,0,2.28285-.78584,2.67515-1.8845l3.44894-12.86676c.18171-.58363.72447-1.00846,1.36466-1.00846.64144,0,1.18416.42483,1.36106,1.00846" fill="#fff" stroke-width="0"/><path d="M19.16654,65.03306c1.6246,0,3.09032-.68235,4.12526-1.77623.96392-1.01684,1.55357-2.39115,1.55357-3.9026,0-3.13725-2.54279-5.67883-5.67883-5.67883H4.25883c-.78341,0-1.41879.63541-1.41879,1.41883v19.8765c0,.78459.63538,1.42,1.41879,1.42h14.90771c3.13604,0,5.67883-2.54275,5.67883-5.67883,0-1.51145-.59087-2.88576-1.55357-3.9026-1.03494-1.09389-2.49945-1.77623-4.12526-1.77623" fill="#fff" stroke-width="0"/><path d="M25.51567,65.03306c1.34901,1.50667,2.16974,3.49708,2.16974,5.67883,0,4.70408-3.81358,8.51884-8.51887,8.51884H4.25883C1.90738,79.23073,0,77.32339,0,74.97072v-19.8765C0,52.74156,1.90738,50.83539,4.25883,50.83539h14.90771c4.70529,0,8.51887,3.81351,8.51887,8.51884,0,2.18175-.82073,4.17099-2.16974,5.67883M19.16654,65.03306c1.6246,0,3.09032-.68235,4.12526-1.77623.96392-1.01684,1.55357-2.39115,1.55357-3.9026,0-3.13725-2.54279-5.67883-5.67883-5.67883H4.25883c-.78341,0-1.41879.63541-1.41879,1.41883v19.8765c0,.78459.63538,1.42,1.41879,1.42h14.90771c3.13604,0,5.67883-2.54275,5.67883-5.67883,0-1.51145-.59087-2.88576-1.55357-3.9026-1.03494-1.09389-2.49945-1.77623-4.12526-1.77623" fill="#000" stroke-width="0"/><path d="M16.50149,67.87218c.78463,0,1.42.63541,1.42,1.42,0,.78341-.63538,1.42-1.42,1.42h-5.32385c-.78459,0-1.42-.63659-1.42-1.42v-8.51884c0-.78341.63541-1.42,1.42-1.42h5.30578c.80269,0,1.43807.63659,1.43807,1.42,0,.78459-.63538,1.42-1.42,1.42h-1.06502c-1.568,0-2.83879,1.27075-2.83879,2.84,0,1.568,1.27079,2.83883,2.83879,2.83883h1.06502Z" fill="#000" stroke-width="0"/><path d="M62.2037,73.37503c-1.58126,3.42121-5.03259,5.79914-9.03993,5.80399-4.02658,0-7.48151-2.37551-9.05197-5.79679-.30926-.6667-1.70161-5.8521-1.70161-5.8521,0,0-2.05299,7.69209-2.0939,7.81482-.60049,1.80392-2.07947,3.20468-3.93029,3.69569-.46571.12391-.95551.19009-1.45974.19009-1.56804,0-2.98683-.63534-4.01454-1.66187-.7064-.70637-1.22867-1.59929-1.48618-2.59813-.11675-.4537-.17812-.92906-.17812-1.41883,0-.44525.05053-.87728.14683-1.29242.02887-.12273,3.79191-14.18687,3.86529-14.42397.7353-2.38028,2.34183-4.37914,4.44657-5.62345,1.47898-.87486,3.20586-1.37674,5.04948-1.37674,4.77628,0,8.76434,3.36833,9.72106,7.85823l.67992,2.53798.67989-2.53798c.95551-4.4899,4.94478-7.85823,9.71989-7.85823,1.84359,0,3.57046.50188,5.05065,1.37674,2.10474,1.24431,3.71009,3.24317,4.44657,5.62345.0722.2371,3.83521,14.30123,3.86411,14.42397.09626.41514.14679.84717.14679,1.29242,0,.48976-.06137.96513-.17808,1.41883-.25755.99884-.7786,1.89177-1.48622,2.59813-1.02771,1.02653-2.4465,1.66187-4.01454,1.66187-.50423,0-.99399-.06618-1.4597-.19009-1.84965-.49101-3.3298-1.89177-3.92912-3.69569-.04212-.12273-2.0939-7.81482-2.0939-7.81482,0,0-1.39114,5.18062-1.69922,5.8449M43.77606,61.63947s2.5512,9.55499,2.58609,9.6717c.86766,2.9291,3.57292,5.06751,6.77995,5.07956,3.23476-.01205,5.93998-2.15046,6.80764-5.07956.03489-.11671,2.58609-9.6717,2.58609-9.6717.1769-.58363.71966-1.00846,1.36106-1.00846s1.18294.42483,1.36466,1.00846l3.45015,12.86676c.39229,1.09866,1.44167,1.8845,2.67393,1.8845,1.56925,0,2.84004-1.27075,2.84004-2.83883,0-.21418-.02409-.42241-.0686-.62337-.01564-.0686-3.67156-13.70431-3.67156-13.70431l-.15645-.58246c-.90497-2.87849-3.59576-4.96637-6.77272-4.96637-3.13608,0-5.79679,2.0325-6.73544,4.85208l-2.26478,7.27335c-.19376.72443-.69678,1.18416-1.40076,1.18416-.70519,0-1.23469-.49101-1.40076-1.189l-2.2624-7.2685c-.93986-2.81958-3.60058-4.85208-6.73662-4.85208-3.17699,0-5.86778,2.08788-6.77276,4.96637l-.15641.58246s-3.65596,13.63571-3.6716,13.70431c-.04451.20096-.06857.40919-.06857.62337,0,1.56808,1.27196,2.83883,2.84,2.83883,1.2323,0,2.28285-.78584,2.67515-1.8845l3.44894-12.86676c.18171-.58363.72447-1.00846,1.36466-1.00846.64144,0,1.18416.42483,1.36106,1.00846" fill="#000" stroke-width="0"/><path d="M90.40803,56.69036c1.58247-3.42004,5.0338-5.79797,9.04114-5.80399,4.02537,0,7.48151,2.37551,9.05197,5.79679.30926.6667,1.70161,5.8521,1.70161,5.8521,0,0,2.05299-7.69209,2.0939-7.81482.60049-1.80275,2.07947-3.20468,3.93029-3.69569.46571-.12391.95551-.18891,1.45974-.18891,1.56683,0,2.98683.63416,4.01454,1.6607.7064.70761,1.22867,1.59929,1.485,2.59813.11792.4537.17929.92906.17929,1.42,0,.44408-.05053.87728-.14683,1.29124-.02887.12273-3.79191,14.18687-3.86529,14.42397-.7353,2.38153-2.34183,4.37914-4.44657,5.62345-1.48019.87486-3.20586,1.37674-5.05069,1.37674-4.77507,0-8.76313-3.36715-9.71985-7.85823l-.67992-2.53673-.67989,2.53673c-.95551,4.49108-4.94478,7.85823-9.71989,7.85823-1.84359,0-3.57046-.50188-5.05065-1.37674-2.10474-1.24431-3.71009-3.24192-4.44657-5.62345-.07338-.2371-3.83521-14.30123-3.86411-14.42397-.09626-.41396-.148-.84717-.148-1.29124,0-.49094.06258-.9663.17929-1.42.25634-.99884.7786-1.89052,1.48622-2.59813,1.02771-1.02653,2.4465-1.6607,4.01454-1.6607.50423,0,.99278.065,1.4597.18891,1.84965.49101,3.3298,1.89294,3.93033,3.69569.0397.12273,2.09269,7.81482,2.09269,7.81482,0,0,1.39114-5.17938,1.69801-5.8449M108.83688,68.42592s-2.55241-9.55382-2.58609-9.6717c-.86766-2.92785-3.5741-5.06634-6.77995-5.07956-3.23476.01205-5.93998,2.15046-6.80764,5.07956-.03489.11789-2.5873,9.6717-2.5873,9.6717-.17569.58363-.71962,1.00846-1.35985,1.00846-.6414,0-1.18294-.42483-1.36466-1.00846l-3.45015-12.86676c-.39229-1.09866-1.44167-1.8845-2.67393-1.8845-1.56925,0-2.84004,1.27075-2.84004,2.84,0,.213.02409.42241.0686.62219.01564.0686,3.67156,13.70431,3.67156,13.70431l.15645.58246c.90497,2.87849,3.59455,4.96762,6.77272,4.96762,3.13608,0,5.79558-2.03257,6.73544-4.85333l2.26478-7.27335c.19376-.72443.69678-1.18416,1.39955-1.18416.7064,0,1.2359.49101,1.40197,1.189l2.2624,7.2685c.93986,2.82076,3.60058,4.85333,6.73541,4.85333,3.1782,0,5.86778-2.08913,6.77397-4.96762l.15524-.58246s3.65713-13.63571,3.67278-13.70431c.04451-.19978.06739-.40919.06739-.62219,0-1.56925-1.27079-2.84-2.83883-2.84-1.23348,0-2.28285.78584-2.67515,1.8845l-3.44894,12.86676c-.18293.58363-.72447,1.00846-1.36466,1.00846-.64144,0-1.18537-.42483-1.36106-1.00846" fill="#000" stroke-width="0"/><path d="M129.90767,53.67444c-1.56804,0-2.84,1.27075-2.84,2.84,0,1.568,1.27196,2.83883,2.84,2.83883h2.84004v13.49013c0,1.9603,1.58846,3.54762,3.54879,3.54762s3.55004-1.58974,3.55004-3.54887v-13.48888h2.83883c1.568,0,2.84-1.27083,2.84-2.83883,0-1.56925-1.272-2.84-2.84-2.84h-12.7777ZM124.22884,56.51444c0-3.13608,2.54279-5.67883,5.67883-5.67883q12.7777-.00242,12.7777,0c3.13604,0,5.67883,2.54275,5.67883,5.67883s-2.54279,5.67883-5.67883,5.67883v10.64888c0,3.5272-2.8605,6.38762-6.38887,6.38762s-6.38883-2.85807-6.38883-6.38637v-10.65013c-3.13604,0-5.67883-2.54275-5.67883-5.67883" fill="#000" stroke-width="0"/></svg>