<?xml version="1.0" encoding="UTF-8"?><svg id="a" xmlns="http://www.w3.org/2000/svg" viewBox="0 0 500 178"><path d="M110.91533,115.12657V32.94041h26.06439v57.53072h35.33993v24.65544h-61.40432Z" fill="#fff"/><path d="M272.0244,115.12657v-58.70417h-22.65936v-23.48199h71.38351v23.48199h-22.65976v58.70417h-26.06439Z" fill="#fff"/><path d="M456.35348,71.33334h42.85447v43.79323h-13.85402l-3.75748-9.04044c-3.52197,4.81358-11.38815,10.80142-27.12131,10.80142-21.60285,0-40.03575-19.37248-40.03575-42.85366,0-23.36465,18.43291-42.85447,42.85366-42.85447,30.52594,0,39.80188,23.83403,40.62329,29.23515l-26.53459,2.69974c-1.17345-2.5824-5.28296-9.04044-14.08871-9.04044-9.15778,0-16.78927,7.63148-16.78927,19.96002,0,12.32772,7.63148,19.9592,17.25865,19.9592,7.51414,0,11.62365-4.22686,13.14995-7.3968h-14.5589v-15.26297Z" fill="#fff"/><polygon points="206.61569 115.12657 206.61569 102.21213 192.96326 115.12657 206.61569 115.12657" fill="#fff"/><polygon points="180.5513 32.94041 180.5513 47.02912 195.44512 32.94041 180.5513 32.94041" fill="#fff"/><polygon points="207.85703 32.94041 180.5513 58.77011 180.5513 81.07784 206.61569 56.4224 241.95602 56.4224 241.95602 32.94041 207.85703 32.94041" fill="#fff"/><polygon points="180.5513 92.81884 180.5513 115.12657 206.61569 90.47113 236.5549 90.47113 236.5549 68.1634 206.61569 68.1634 180.5513 92.81884" fill="#fff"/><polygon points="354.20893 115.12657 354.20893 102.76712 341.14322 115.12657 354.20893 115.12657" fill="#fff"/><polygon points="328.73126 32.94041 328.73126 47.02912 343.62508 32.94041 328.73126 32.94041" fill="#fff"/><polygon points="380.86086 32.94041 380.86086 76.02957 354.59697 34.30261 328.73126 58.77011 328.73126 81.07784 354.20893 56.9774 354.20893 68.71839 328.73126 92.81884 328.73126 115.12657 354.20893 91.02612 354.20893 72.03741 381.21289 115.12657 406.33853 115.12657 406.33853 32.94041 380.86086 32.94041" fill="#fff"/><path d="M34.69397,61.95074s9.09369-6.8421,12.96753-9.75214c3.8739-2.9101,6.96344-7.12,6.96344-16.26544l.21509-7.08588h5.73792v-7.71826l16.77966-12.78455h422.6424V0H0v8.34448h10.17804l16.77966,12.78455v7.71826h5.24347v4.64703c0,4.42456-2.44611,8.48895-6.3623,10.54797-2.42712,1.27612-4.98303,2.66138-6.54456,3.62628-4.64276,2.86719-8.99756,6.34198-12.3053,10.57086C2.45856,64.03131.59473,68.3125.05316,77.02045c-.33502,5.39771.95117,11.92053,2.797,15.96948,2.89978,6.35999,6.43457,10.43463,11.46552,14.73206,7.4397,6.354,16.50586,9.16559,26.84796,9.16559,15.81781,0,28.18329-8.32251,32.83185-21.53601,1.86523-5.30194,1.88916-14.35895,2.51678-19.06207.54938-4.11707,3.9054-12.08801,4.30682-13.1579.40149-1.06989.83844-4.01935-2.27509-5.07983-3.54877-1.20868-6.47205,2.04669-7.83051,3.59906-.90747,1.03705-6.64355,8.49463-10.36523,15.74408-4.00226,7.79608-7.8219,13.47156-12.23077,15.66956-9.09869,4.5365-16.58643-1.02142-17.52557-1.87408-3.4671-3.14911-6.63684-6.86041-6.11499-14.8075.37195-5.66589,5.10382-10.91278,10.21704-14.43213Z" fill="#fff"/><path d="M20.70337,151.95283v24.1543h-7.01562v-24.1543H.58179v-6.00684h33.18555v6.00684h-13.06396Z" fill="#fff"/><path d="M77.32153,161.02608c0,8.98926-7.51904,15.54297-17.89502,15.54297-10.41797,0-17.93701-6.55371-17.93701-15.54297s7.51904-15.54297,17.93701-15.54297c10.37598,0,17.89502,6.55371,17.89502,15.54297ZM48.63062,161.02608c0,5.71289,4.49463,9.45215,10.7959,9.45215,6.25928,0,10.75391-3.73926,10.75391-9.45215s-4.49463-9.45117-10.75391-9.45117c-6.30127,0-10.7959,3.73828-10.7959,9.45117Z" fill="#fff"/><path d="M113.44019,145.946l6.93115,21.96973,7.43555-21.96973h7.14111l-10.41797,30.16113h-7.85498l-6.84766-21.71777-6.88916,21.71777h-7.81299l-10.41797-30.16113h7.30908l7.43555,21.96973,6.93115-21.96973h7.05713Z" fill="#fff"/><path d="M174.80298,145.946v6.00684h-22.34814v5.79688h19.95361v5.92285h-19.95361v6.42773h22.34814v6.00684h-29.2373v-30.16113h29.2373Z" fill="#fff"/><path d="M193.99243,176.10713h-7.01514v-30.16113h19.19727c7.01514,0,11.72021,3.40234,11.72021,9.70312,0,4.53711-2.5625,7.6875-6.80518,9.03223l7.51904,11.42578h-8.02344l-6.84717-10.71191h-9.74561v10.71191ZM205.79663,159.68233c3.31836,0,5.20898-1.4707,5.20898-3.90723,0-2.47852-1.89062-3.90625-5.20898-3.90625h-11.8042v7.81348h11.8042Z" fill="#fff"/><path d="M266.31763,145.48311c8.10742,0,13.9043,3.65527,16.21484,9.62012l-6.21777,2.98242c-1.51172-3.99023-4.91406-6.51074-9.99707-6.51074-6.0918,0-10.75439,3.73828-10.75439,9.45117s4.6626,9.45215,10.75439,9.45215c5.08301,0,8.48535-2.52051,9.99707-6.51172l6.21777,2.98242c-2.31055,5.96582-8.10742,9.62012-16.21484,9.62012-10.33447,0-17.89551-6.55371-17.89551-15.54297s7.56104-15.54297,17.89551-15.54297Z" fill="#fff"/><path d="M300.71313,176.10713h-7.01465v-30.16113h19.19727c7.01465,0,11.71973,3.40234,11.71973,9.70312,0,4.53711-2.5625,7.6875-6.80469,9.03223l7.51855,11.42578h-8.02344l-6.84668-10.71191h-9.74609v10.71191ZM312.51782,159.68233c3.31836,0,5.20898-1.4707,5.20898-3.90723,0-2.47852-1.89062-3.90625-5.20898-3.90625h-11.80469v7.81348h11.80469Z" fill="#fff"/><path d="M356.7854,145.946l14.99609,30.16113h-7.60352l-3.19238-6.46973h-16.55078l-3.19238,6.46973h-7.47754l15.08105-30.16113h7.93945ZM347.29126,163.84053h10.87988l-5.41895-11.00586-5.46094,11.00586Z" fill="#fff"/><path d="M414.24341,176.10713h-6.1748l-18.81934-21.21387v21.21387h-6.80566v-30.16113h7.09961l17.89453,20.20508v-20.20508h6.80566v30.16113Z" fill="#fff"/><path d="M456.83032,145.946v6.00684h-22.34766v5.79688h19.95312v5.92285h-19.95312v6.42773h22.34766v6.00684h-29.2373v-30.16113h29.2373Z" fill="#fff"/><path d="M470.93677,165.14326c3.52832,4.1582,8.90527,5.54492,13.27441,5.54492,4.66309,0,7.93945-1.26074,7.93945-3.44531,0-2.51953-2.47852-2.73047-10.54395-3.6123-7.18359-.79785-12.98047-2.26855-12.98047-8.31738,0-6.00684,5.75488-9.83008,14.49316-9.83008,6.80469,0,12.85352,2.26855,15.71094,5.58691l-4.41113,4.66309c-2.39453-2.77246-6.76367-4.41016-11.76172-4.41016-4.74707,0-7.1416,1.42773-7.1416,3.23438,0,1.97363,2.10059,2.39453,9.53516,3.23438,7.89746.88184,14.36719,2.10059,14.36719,8.69531,0,6.76367-6.6377,10.08203-15.50098,10.08203-6.93164,0-14.36621-2.47852-17.39062-6.34277l4.41016-5.08301Z" fill="#fff"/></svg>