<svg class="banner__logo" xmlns="http://www.w3.org/2000/svg" viewBox="0 0 640 150">
                <path d="M175.33405,115.80304h45.23511v31.55896h-78.59753V42.1637h33.36243v73.63934ZM319.18726,72.2207h29.00397v75.1413h33.36243v-75.1413h29.00452v-30.05701h-91.37091v30.05701ZM584.13245,110.84326h18.63544c-1.95367,4.05756-7.21387,9.4679-16.83197,9.4679-12.32275,0-22.09106-9.76831-22.09106-25.54779,0-15.78052,9.76831-25.54883,21.4903-25.54883,11.27136,0,16.53149,8.2663,18.03351,11.57178l33.96429-3.45569c-1.05139-6.91339-12.92462-37.42096-51.9978-37.42096-31.25861,0-54.85272,24.94696-54.85272,54.8537,0,30.05591,23.59412,54.85272,51.24579,54.85272,20.13843,0,30.20715-7.66443,34.71527-13.82587l4.80957,11.57178h17.73315v-56.0553h-54.85376v19.53656ZM264.46808,147.362v-16.53046l-17.4751,16.53046h17.4751ZM231.10565,60.19727l19.06415-18.03357h-19.06415v18.03357ZM231.10565,75.22577v28.55389l33.36243-31.55896h45.23566v-30.05701h-43.64673l-34.95135,33.06207ZM231.10565,118.80811v28.55389l33.36243-31.55896h38.3222v-28.55389h-38.3222l-33.36243,31.55896ZM453.38745,147.362v-15.82007l-16.72412,15.82007h16.72412ZM420.77606,60.19727l19.06409-18.03357h-19.06409v18.03357ZM487.50189,97.31787l-33.61774-53.41052-33.10809,31.31842v28.55389l32.61139-30.84857v15.02844l-32.61139,30.84857v28.55389l32.61139-30.84857v-24.30554l34.56506,55.15411h32.16083V42.1637h-32.61145v55.15417ZM0,0v10.68091h13.02789l21.47797,16.36426v9.87939h6.71167v5.94818c0,5.66345-3.13104,10.86584-8.14374,13.5014-3.10675,1.63342-6.3783,3.40656-8.37708,4.64166-5.94269,3.66998-11.51685,8.11774-15.75073,13.5307C3.14697,81.96008.76129,87.44.06805,98.58618c-.42883,6.90906,1.21753,15.2583,3.58014,20.44092,3.71173,8.14081,8.23627,13.35632,14.6759,18.85706,9.52283,8.13312,21.1275,11.73193,34.36536,11.73193,20.24683,0,36.07465-10.65283,42.02478-27.5661,2.38751-6.7865,2.41815-18.37946,3.2215-24.39941.70319-5.2699,4.9989-15.47266,5.51276-16.84216.51385-1.36945,1.07318-5.14471-2.91211-6.50214-4.54248-1.54712-8.28424,2.61975-10.02307,4.60675-1.16156,1.32745-8.50378,10.87317-13.26752,20.15247-5.12286,9.97894-10.01202,17.24359-15.6554,20.05701-11.6463,5.8067-21.23059-1.30743-22.43274-2.3988-4.43787-4.03088-8.49512-8.78137-7.82715-18.95361.47607-7.25232,6.5329-13.96838,13.07782-18.47314,0,0,11.63989-8.75787,16.59839-12.48273,4.95862-3.72491,8.91321-9.11359,8.91321-20.81976l.27533-9.06989h7.34454v-9.87939l21.47797-16.36426h540.98224V0H0Z" fill="#1F336A" stroke-width="0"></path>
            </svg>