<?xml version="1.0" encoding="UTF-8"?><svg id="a" xmlns="http://www.w3.org/2000/svg" viewBox="0 0 512 512"><path d="M64.28484,0v36.55113h44.58263l73.49956,55.99987v33.80812h22.96785v20.35527c0,19.3808-10.71464,37.18395-27.86864,46.20303-10.63146,5.58976-21.82705,11.65759-28.66698,15.88412-20.33657,12.55909-39.4118,27.77963-53.90062,46.30329-19.84462,25.37006-28.00871,44.12286-30.38094,82.26608-1.46748,23.64348,4.16639,52.21523,12.25163,69.95076,12.70184,27.85853,28.1852,45.70658,50.22215,64.53052,32.58794,27.83226,72.30024,40.14782,117.6015,40.14782,69.28639,0,123.45063-36.4549,143.81258-94.3337,8.17021-23.22397,8.27505-62.89617,11.02418-83.49716,2.40643-18.03392,17.10675-52.94885,18.86505-57.63524,1.75863-4.68641,3.6726-17.60586-9.96554-22.25106-15.54458-5.29435-28.34939,8.96506-34.29982,15.76488-3.97497,4.54256-29.10058,37.20885-45.40258,68.96345-17.53102,34.149-34.26209,59.00916-53.57416,68.63703-39.85478,19.87112-72.65316-4.47412-76.76685-8.20898-15.18686-13.79397-29.0712-30.05051-26.78535-64.86097,1.62924-24.81818,22.35615-47.801,44.75347-63.21672,0,0,39.83288-29.9703,56.80137-42.71708,16.96876-12.74704,30.5018-31.18757,30.5018-71.24713l.94216-31.03812h25.13367v-33.80812l73.49956-55.99987h108.86748V0H64.28484Z" fill="#1f336a" stroke-width="0"/></svg>